<?xml version="1.0" encoding="UTF-8"?> <svg xmlns="http://www.w3.org/2000/svg" width="284" height="436" viewBox="0 0 284 436" fill="none"><path d="M135.814 16.0947L190.139 73.5098L219.277 0.0194319L247.515 73.8788L302.531 17.1493L300.386 96.1688L372.92 64.795L340.665 137.006L419.699 135.814L362.284 190.139L435.774 219.277L361.957 247.498L418.644 302.531L339.667 300.368L370.998 372.92L298.83 340.648L300.021 419.682L245.696 362.266L216.516 435.774L188.337 361.939L133.262 418.644L135.467 339.65L62.8733 370.998L95.1453 298.829L16.1119 300.021L73.527 245.696L0.0195319 216.516L73.896 188.32L17.1494 133.262L96.186 135.45L64.7951 62.8732L137.006 95.1281L135.814 16.0947Z" fill="#FF6700"></path></svg> 